<?xml version="1.0" encoding="UTF-8" standalone="no"?>
<svg
   version="1.1"
   viewBox="0 0 47.999999 47.999999"
   width="48"
   height="48"
   id="svg954"
   xmlns="http://www.w3.org/2000/svg"
   xmlns:svg="http://www.w3.org/2000/svg">
  <!-- svg-source:excalidraw -->
  <defs
     id="defs826">
    <style
       class="style-fonts"
       id="style824">
      @font-face {
        font-family: &quot;Virgil&quot;;
        src: url(&quot;https://excalidraw.com/Virgil.woff2&quot;);
      }
      @font-face {
        font-family: &quot;Cascadia&quot;;
        src: url(&quot;https://excalidraw.com/Cascadia.woff2&quot;);
      }
    </style>
  </defs>
  <rect
     x="0.35167775"
     y="0.76567942"
     width="222.98593"
     height="222.19737"
     fill="#ffffff"
     id="rect828"
     style="stroke-width:1.14585" />
  <g
     stroke-linecap="round"
     id="g836"
     transform="translate(27.372304)">
    <g
       stroke-opacity="0.7"
       fill-opacity="0.7"
       transform="translate(32.411295,56.410138)"
       fill-rule="evenodd"
       id="g834">
      <path
         d="m 0.64,-3.73 0.69,-7.66 9.75,-15.68 20.59,-13.33 14.78,-2.49 20.25,3.77 11.95,-0.24 16.44,20.45 4,11.17 4.93,6.46 -7.64,3.49 -16.47,-12.58 -29.79,-3.19 -32.66,4.29 -5.69,4.3 -11.28,1.56"
         stroke="none"
         stroke-width="0"
         fill="#40c057"
         fill-rule="evenodd"
         id="path830" />
      <path
         d="m -0.1,-0.85 c 0.47,-2.8 -4.15,-11.5 1.09,-18.51 5.24,-7 19.69,-20.15 30.36,-23.51 10.68,-3.36 22.18,-1.41 33.69,3.35 11.51,4.76 29.47,18.27 35.35,25.21 5.88,6.93 3.61,15.96 -0.06,16.4 C 96.65,2.54 91.94,-9.64 78.36,-11.63 64.78,-13.61 32.06,-11.88 18.85,-9.81 5.64,-7.74 1.92,-0.47 -0.91,0.78 m -2.68,-4.56 c 1.45,-2.32 3.9,-7.18 9.54,-13.33 5.64,-6.15 14.59,-19.05 24.31,-23.59 9.71,-4.53 22.74,-8.16 33.98,-3.63 11.25,4.54 28.14,23.52 33.51,30.85 5.38,7.32 2.97,12.14 -1.26,13.11 C 92.25,0.61 85.63,-5.97 72.35,-7.61 59.07,-9.24 28.32,-11.1 16.81,-10.17 5.3,-9.25 6.75,-4.43 3.29,-2.06"
         stroke="#2b8a3e"
         stroke-width="2"
         fill="none"
         id="path832" />
    </g>
  </g>
  <mask
     id="mask838" />
  <g
     stroke-linecap="round"
     id="g846"
     transform="translate(27.372304)">
    <g
       transform="translate(126.50505,119.98436)"
       fill-rule="evenodd"
       id="g844">
      <path
         d="m 2.92,-1.14 -7.63,9.06 -16.01,4.12 -32.99,2.53 -20.09,-1.93 -0.05,-12.58 -6.14,-0.11 -6.11,-17.48 -7.34,-24.73 2.87,-12.09 4.8,-12.53 18.94,0.91 13.74,-6.69 30.62,-5.07 18.75,12.35 1.6,18.16 L 3,-2.65"
         stroke="none"
         stroke-width="0"
         fill="#ffdab9"
         fill-rule="evenodd"
         id="path840" />
      <path
         d="m -1.73,-1.38 c -2.29,1.37 -2.12,9.24 -13.26,11.68 -11.15,2.45 -43.58,4.28 -53.62,3.01 -10.05,-1.28 -4.21,-6.64 -6.65,-10.68 -2.44,-4.04 -5.53,-4.47 -7.99,-13.57 -2.47,-9.11 -9.07,-31.11 -6.8,-41.08 2.26,-9.98 10.59,-14.71 20.38,-18.76 9.79,-4.04 28.61,-6.19 38.33,-5.5 9.72,0.69 14.28,5.49 20.01,9.66 5.73,4.17 12.95,3.85 14.38,15.36 1.43,11.52 -5.67,44.97 -5.79,53.73 M 2.53,4.04 C 1.25,4.31 2.58,3.54 -9.62,5.59 -21.82,7.65 -59.89,16.43 -70.67,16.36 -81.45,16.3 -71.88,9.81 -74.31,5.18 -76.73,0.55 -83.12,-1.4 -85.22,-11.4 c -2.1,-10 -4.61,-34.36 -1.68,-43.43 2.93,-9.07 10.49,-7.15 19.27,-11 8.77,-3.84 23.38,-11.55 33.36,-12.08 9.98,-0.53 21.21,4.39 26.52,8.91 5.31,4.51 4.66,7.1 5.37,18.18 0.72,11.08 -1.53,39.68 -1.09,48.32"
         stroke="#495057"
         stroke-width="2"
         fill="none"
         id="path842" />
    </g>
  </g>
  <mask
     id="mask848" />
  <g
     stroke-linecap="round"
     id="g856"
     transform="translate(27.372304)">
    <g
       transform="translate(130.89176,73.957013)"
       fill-rule="evenodd"
       id="g854">
      <path
         d="m -3.78,0.02 29.77,0.83 3.53,6.9 -4.78,6.62 -6.87,1.21 -13.6,-2.18 -7.84,3.44 0.81,-19.48"
         stroke="none"
         stroke-width="0"
         fill="#ffdab9"
         fill-rule="evenodd"
         id="path850" />
      <path
         d="m -2.17,-2.32 c 3.79,-0.2 20.2,0.1 24.21,2.78 4.02,2.68 2.28,10.25 -0.13,13.3 -2.41,3.04 -10.05,4.98 -14.35,4.97 -4.3,-0.01 -9.81,-2.04 -11.44,-5.04 -1.63,-3 0.63,-10.2 1.68,-12.95 m 4.04,1.85 c 4.69,-1.23 22.11,-9.08 25.12,-6.67 3,2.42 -3.87,18.19 -7.08,21.14 -3.2,2.95 -8.97,-3 -12.17,-3.45 C 4.5,13.15 1.95,16.83 0.65,14.34 -0.64,11.86 0.61,0.88 -0.06,-1.31"
         stroke="#000000"
         stroke-width="2"
         fill="none"
         id="path852" />
    </g>
  </g>
  <mask
     id="mask858" />
  <g
     stroke-linecap="round"
     id="g866"
     transform="translate(27.372304)">
    <g
       transform="translate(29.485514,75.781232)"
       fill-rule="evenodd"
       id="g864">
      <path
         d="m -2.66,2.05 -8.93,-2.37 -8.58,2.6 8.23,4.92 3.1,4.78 11.46,3.1 1.22,-3.26 -2.33,-8.11"
         stroke="none"
         stroke-width="0"
         fill="#ffdab9"
         fill-rule="evenodd"
         id="path860" />
      <path
         d="m -0.52,-2.42 c -3.39,0.4 -14.44,0.35 -17.19,2.23 -2.75,1.88 -2.15,6.61 0.71,9.04 2.85,2.43 12.44,5.29 16.42,5.54 C 3.4,14.64 6.74,12.61 6.88,10.38 7.02,8.15 1.75,2.38 0.25,1 m -4.5,1.44 c -2.76,-0.19 -6.99,-8.43 -8.21,-6.85 -1.23,1.58 -1.44,12.86 0.85,16.34 2.3,3.47 9.04,4.81 12.92,4.5 3.88,-0.3 9.96,-3.42 10.36,-6.31 C 12.07,7.23 5.96,0.76 3.72,-0.91"
         stroke="#000000"
         stroke-width="2"
         fill="none"
         id="path862" />
    </g>
  </g>
  <mask
     id="mask868" />
  <g
     stroke-linecap="round"
     transform="translate(73.279693,136.1992)"
     id="g874">
    <path
       d="M 13.78,1.73 56.42,2.6 68.23,2.86 71.92,9.7 71.78,40.69 73.21,44.25 57.7,50.96 16.36,47.16 6.76,48.05 1.92,40.65 3.43,9.78 3.67,3.91 9.94,-0.88"
       stroke="none"
       stroke-width="0"
       fill="#12b886"
       id="path870" />
    <path
       d="m 12.69,0 m 0,0 C 29.28,-0.51 48.55,1.41 60.4,0 M 12.69,0 c 10.65,-0.09 25,-2.71 47.71,0 m 0,0 c 8.15,1.72 13.32,3.37 12.69,12.69 M 60.4,0 c 12.13,1.5 9.95,7.54 12.69,12.69 m 0,0 c -0.53,6.92 -3.5,12.99 0,25.39 m 0,-25.39 c 1.6,10.03 0.32,20.02 0,25.39 m 0,0 C 70.1,45.57 64.99,49.67 60.4,50.77 M 73.09,38.08 c 2.59,8.98 0.1,11.17 -12.69,12.69 m 0,0 c -14.24,-2.73 -21.23,4.62 -47.71,0 m 47.71,0 c -9.56,0.81 -20.82,0.59 -47.71,0 m 0,0 C 7.78,51.83 -2.47,44.03 0,38.08 M 12.69,50.77 C 0.31,49.97 -4.27,47.51 0,38.08 m 0,0 C -1.79,36.3 -1.69,28.91 0,12.69 M 0,38.08 C -0.39,32.61 -1.96,28.3 0,12.69 m 0,0 C 3.15,3.11 7.79,-2.44 12.69,0 M 0,12.69 C 3.29,5.52 0.5,2.58 12.69,0"
       stroke="#2b8a3e"
       stroke-width="2"
       fill="none"
       id="path872" />
  </g>
  <g
     stroke-linecap="round"
     id="g882"
     transform="translate(27.372304)">
    <g
       stroke-opacity="0.7"
       fill-opacity="0.7"
       transform="translate(51.348795,137.90623)"
       fill-rule="evenodd"
       id="g880">
      <path
         d="m 0.15,-0.34 -24.67,11.13 -1.68,3.63 15.96,10.73 5.55,1.33 5.72,-28.37"
         stroke="none"
         stroke-width="0"
         fill="#2b8a3e"
         fill-rule="evenodd"
         id="path876" />
      <path
         d="m 1.91,-1.98 c -3.95,1.05 -20.27,4.55 -23.75,8.8 -3.49,4.25 0.71,13.66 2.84,16.69 2.12,3.02 6.73,5.67 9.89,1.48 3.17,-4.18 7.26,-22.8 9.08,-26.6 M -0.5,3.12 c -4.3,1.28 -18.93,3.6 -22.46,6.18 -3.53,2.58 -0.99,6.27 1.29,9.31 2.27,3.03 9.34,12.25 12.37,8.89 3.02,-3.37 4.65,-24.64 5.78,-29.06"
         stroke="#2b8a3e"
         stroke-width="2"
         fill="none"
         id="path878" />
    </g>
  </g>
  <mask
     id="mask884" />
  <g
     stroke-linecap="round"
     id="g892"
     transform="translate(27.372304)">
    <g
       stroke-opacity="0.7"
       fill-opacity="0.7"
       transform="translate(119.8527,138.87889)"
       fill-rule="evenodd"
       id="g890">
      <path
         d="m -0.7,1.86 27.37,8.88 -1.01,3.37 -11.18,9.97 -1.33,3.09 L 0.57,23.03 -3.7,1.48"
         stroke="none"
         stroke-width="0"
         fill="#2b8a3e"
         fill-rule="evenodd"
         id="path886" />
      <path
         d="m -1.25,0.92 c 3.02,0.79 18.6,2.66 21.77,6.56 3.18,3.9 0.53,14.76 -2.71,16.84 C 14.58,26.4 4.02,23.91 1.11,19.97 -1.8,16.02 0.13,4.08 0.35,0.67 M 3.26,-1.05 C 6.9,1.21 23.26,6.36 25.5,9.89 27.73,13.41 20.89,18.13 16.67,20.1 12.45,22.08 3.47,24.77 0.2,21.75 -3.07,18.72 -2.64,6.12 -2.94,1.96"
         stroke="#2b8a3e"
         stroke-width="2"
         fill="none"
         id="path888" />
    </g>
  </g>
  <mask
     id="mask894" />
  <g
     stroke-linecap="round"
     transform="translate(148.975,160.29686)"
     id="g900">
    <path
       d="m 15.61,4.08 7.83,7.85 -4.22,1.79 L 0.39,9.5 8.94,-1.62 20.75,4.7"
       stroke="none"
       stroke-width="0"
       fill="#ffdab9"
       id="path896" />
    <path
       d="m 17.5,2.25 m 0,0 c 0.48,0.07 2.75,2.34 6.03,4.5 M 17.5,2.25 c 2.21,1.47 3.3,2.32 6.03,4.5 m 0,0 c 4.53,2.11 7.2,-0.58 0,4.5 m 0,-4.5 c 6.4,0.69 7.81,1.52 0,4.5 m 0,0 c -2.71,0.59 -4.1,1.52 -6.03,4.38 m 6.03,-4.38 c -1.27,1.71 -3.87,1.95 -6.03,4.38 m 0,0 c -6.9,4.26 -5.13,-0.94 -7,0 m 7,0 c -6.87,3.9 0.33,2.37 -7,0 m 0,0 C 7.22,14.97 6.42,13.62 3.5,11.25 m 7,4.38 c -3.35,-2.32 -5.77,-3.8 -7,-4.38 m 0,0 C 0.94,9.2 2.52,10.26 3.5,6.75 m 0,4.5 c -7.39,-2.83 -6.72,-0.74 0,-4.5 m 0,0 c 2.32,-0.6 3.35,-3.37 7,-4.5 m -7,4.5 c 1.36,-1.68 2.4,-1.15 7,-4.5 m 0,0 c 5.5,0.05 7.2,-1.98 7,0 m -7,0 c 4.99,-2.8 7.05,-5.02 7,0"
       stroke="#495057"
       stroke-width="2"
       fill="none"
       id="path898" />
  </g>
  <g
     stroke-linecap="round"
     transform="translate(46.775787,152.43748)"
     id="g906">
    <path
       d="M 13.71,1.12 24.2,10.18 10.23,21.53 -1.69,11.64 12.96,-0.41 16.56,6.5"
       stroke="none"
       stroke-width="0"
       fill="#ffdab9"
       id="path902" />
    <path
       d="m 15,3.25 m 0,0 c 1.58,0.77 0.43,1.6 4.2,6.5 M 15,3.25 c 1.87,2.09 2.59,3.95 4.2,6.5 m 0,0 c 5.23,5.05 5.61,6.65 0,6.5 m 0,-6.5 c 0.87,0.1 -0.85,0.28 0,6.5 m 0,0 c -1.02,2.11 -1.72,1.42 -4.2,5.05 m 4.2,-5.05 c -1.72,1.25 -2.5,3.2 -4.2,5.05 m 0,0 c -1.95,3.43 -6.1,-0.15 -6,0 m 6,0 c -4.66,1.62 -3.97,-0.97 -6,0 m 0,0 C 8.48,21.69 6.35,19.62 3,16.25 M 9,21.3 C 7.47,19.09 6.18,19.05 3,16.25 m 0,0 c -3.77,-2.01 -4.44,-0.8 0,-6.5 m 0,6.5 C 0.12,9.84 -3.01,14.16 3,9.75 m 0,0 c 1.29,-1 3.58,-4.68 6,-6.5 M 3,9.75 C 4.99,7.05 6.36,6.37 9,3.25 m 0,0 c 4.81,-1.99 4.21,-1.1 6,0 m -6,0 c 0.74,-0.52 4.31,0.72 6,0"
       stroke="#343a40"
       stroke-width="2"
       fill="none"
       id="path904" />
  </g>
  <g
     stroke-opacity="0.7"
     fill-opacity="0.7"
     stroke-linecap="round"
     transform="translate(56.103912,184.23826)"
     id="g912">
    <path
       d="M 25.02,5.01 29.53,14.5 15.2,29.97 -1.6,13.57 16.05,3.23 l 7.5,0.7"
       stroke="none"
       stroke-width="0"
       fill="#b94e48"
       id="path908" />
    <path
       d="m 22.5,3.75 m 0,0 c 0.71,1.29 1.12,1.8 7.04,7.5 M 22.5,3.75 c 3.76,2.9 5.87,5.62 7.04,7.5 m 0,0 c 7.59,1.34 5.92,0.25 0,7.5 m 0,-7.5 c 8.72,8.04 3.62,5.17 0,7.5 m 0,0 c -3.15,0.57 -3.13,4.7 -7.04,7.09 m 7.04,-7.09 c -1.2,1.64 -4.04,4.07 -7.04,7.09 m 0,0 c -2.25,4.24 -3.4,0.53 -9,0 m 9,0 c -5.61,6.82 -2.42,5.21 -9,0 m 0,0 c -1.69,-1.77 -4.04,-3.39 -9,-7.09 m 9,7.09 c -3.02,-0.5 -4.25,-1.98 -9,-7.09 m 0,0 c -4.01,-2.2 -5.8,-3.89 0,-7.5 m 0,7.5 c -6.85,-0.59 -0.65,0.29 0,-7.5 m 0,0 c 3.36,-3.48 5.35,-7.16 9,-7.5 m -9,7.5 c 2.97,-1.81 5.31,-4.26 9,-7.5 m 0,0 c 5.62,-4.47 5.64,-5.61 9,0 m -9,0 c 4.43,-2.25 5.61,-6.97 9,0"
       stroke="#000000"
       stroke-width="2"
       fill="none"
       id="path910" />
  </g>
  <g
     stroke-opacity="0.7"
     fill-opacity="0.7"
     stroke-linecap="round"
     transform="translate(123.58047,183.69529)"
     id="g918">
    <path
       d="M 21.22,6.36 29.13,17.24 16.54,28.82 3.09,16.96 15.44,-2.1 19.19,5.47"
       stroke="none"
       stroke-width="0"
       fill="#b94e48"
       id="path914" />
    <path
       d="m 22.5,3.75 m 0,0 c 2.45,3.52 2.4,3.81 7.04,7.5 M 22.5,3.75 c 2.47,1.39 5.02,5.19 7.04,7.5 m 0,0 c 1.51,7.68 5.88,5.19 0,7.5 m 0,-7.5 c 1.05,-0.42 0.19,3.44 0,7.5 m 0,0 c -3.12,1.48 -1.74,2.13 -7.04,7.09 m 7.04,-7.09 c -1.74,1.66 -4.5,3.44 -7.04,7.09 m 0,0 c -1.53,5.92 -7.56,1.24 -9,0 m 9,0 c -8.82,5.98 -8.59,5.89 -9,0 m 0,0 c -2.28,-2.49 -3.43,-4.42 -9,-7.09 m 9,7.09 C 11.62,23.86 9.49,23.1 4.5,18.75 m 0,0 c -4.26,-1.79 -1.11,-2.98 0,-7.5 m 0,7.5 c -7.17,-3.51 -1.26,-2.64 0,-7.5 m 0,0 c 0.09,-2.94 4.75,-3.67 9,-7.5 m -9,7.5 c 2.31,-2.92 5.4,-4.45 9,-7.5 m 0,0 c 2.15,-6.86 1.95,-4.25 9,0 m -9,0 c 0.96,-0.3 5.56,-6.71 9,0"
       stroke="#000000"
       stroke-width="2"
       fill="none"
       id="path916" />
  </g>
  <g
     stroke-linecap="round"
     transform="translate(116.87735,90.792951)"
     id="g924">
    <path
       d="m 14.54,1.88 c 1.55,2.14 2.95,7.94 3.2,10.73 0.24,2.78 -0.67,3.6 -1.71,5.99 -1.04,2.39 -2.95,7.23 -4.54,8.34 C 9.9,28.04 8.54,26.66 6.5,25.23 4.46,23.79 0.51,20.57 -0.75,18.34 -2.01,16.1 -1.41,14.53 -1.05,11.82 -0.68,9.11 -0.31,3.73 1.44,2.09 3.19,0.44 6.92,0.22 9.45,1.96 c 2.52,1.74 6.71,6.94 7.16,10.56 0.45,3.62 -4.07,11.05 -4.48,11.17 M 2.46,3.79 c 0.81,-1.42 3.52,-2.3 5.18,-2.31 1.67,-0.02 2.83,0.72 4.81,2.23 1.99,1.51 6.56,3.67 7.11,6.83 0.54,3.15 -1.84,9.54 -3.82,12.09 -1.98,2.55 -5.91,3.02 -8.07,3.23 C 5.5,26.07 3.8,25.52 2.76,23.89 1.71,22.27 1.7,18.41 1.38,16.08 1.06,13.75 0.11,12.19 0.85,9.91 1.58,7.63 5.3,3.19 5.79,2.38 6.28,1.57 3.62,5.29 3.79,5.03"
       stroke="none"
       stroke-width="0"
       fill="#ffffff"
       id="path920" />
    <path
       d="m 5.21,-1.21 c 1.86,-0.54 6.79,0.79 8.97,2.42 2.17,1.64 3.85,4.66 4.09,7.4 0.23,2.74 -2.09,6.32 -2.68,9.04 C 15,20.36 16.11,23.78 14.7,24.88 13.3,25.99 9.07,25.05 7.16,24.26 5.25,23.47 4.57,21.65 3.26,20.15 1.95,18.66 -0.32,17.76 -0.71,15.31 -1.11,12.85 -1.1,7.8 0.91,5.42 c 2,-2.38 8.35,-3.93 10.41,-4.39 2.06,-0.45 2.35,1.4 1.94,1.66 M 5.74,4.14 c 1.37,-0.73 4.36,-2.38 6.45,-1.71 2.09,0.66 5,4.05 6.1,5.72 1.1,1.67 1.26,1.92 0.49,4.3 -0.77,2.39 -3.29,7.44 -5.11,10.02 -1.82,2.58 -4.16,5.59 -5.8,5.47 C 6.23,27.83 5.2,24.17 3.84,21.78 2.49,19.39 0.47,16.24 -0.28,13.61 -1.03,10.98 -1.5,8.33 -0.67,5.99 0.17,3.65 3.97,0.77 4.73,-0.44 5.49,-1.64 3.47,-1.84 3.87,-1.25"
       stroke="#000000"
       stroke-width="1"
       fill="none"
       id="path922" />
  </g>
  <g
     stroke-linecap="round"
     transform="translate(85.24649,93.691388)"
     id="g930">
    <path
       d="m 10.2,-1.33 c 1.26,0.62 2.37,4.48 3.59,6.93 1.23,2.46 3.58,4.8 3.77,7.79 0.2,2.98 -0.97,8.1 -2.61,10.14 -1.63,2.04 -5.54,2.09 -7.19,2.09 C 6.12,25.62 6.1,25.01 5.08,23.53 4.06,22.06 2.48,19.3 1.64,16.78 0.81,14.25 -0.61,11.21 0.07,8.39 0.75,5.56 3.63,0.69 5.73,-0.17 c 2.09,-0.87 5.24,2.14 6.91,3.36 1.67,1.21 2.95,4.01 3.1,3.92 M 2.51,1.43 c 1.33,-2.03 2.26,-4.64 3.7,-4.12 1.45,0.51 3.25,5.14 4.96,7.22 1.71,2.07 4.9,2.56 5.31,5.23 0.4,2.67 -2.11,8.39 -2.87,10.81 -0.75,2.41 -0.96,2.94 -1.66,3.68 C 11.25,25 10.68,25.63 9.41,25.06 8.13,24.49 5.73,22.6 4.3,20.84 2.88,19.08 1.09,16.95 0.86,14.51 0.63,12.08 2.53,7.51 2.92,6.21 3.31,4.91 2.71,6.91 3.2,6.73"
       stroke="none"
       stroke-width="0"
       fill="#ffffff"
       id="path926" />
    <path
       d="M 5.17,2.8 C 6.3,1.79 8.59,0.14 10.13,0.95 c 1.53,0.81 3.2,4.15 4.27,6.7 1.08,2.55 2.35,5.81 2.16,8.61 -0.2,2.79 -1.72,6.79 -3.32,8.16 -1.59,1.37 -4.89,0.51 -6.27,0.06 C 5.6,24.03 5.89,23.21 4.97,21.71 4.06,20.22 2.3,17.92 1.49,15.5 0.69,13.08 -0.56,10.03 0.13,7.18 c 0.7,-2.86 4.38,-7.52 5.52,-8.81 1.15,-1.28 1.39,0.6 1.37,1.11 m 4.04,-0.73 c 1.11,0.65 2.07,4.51 2.91,7.18 0.83,2.66 2.29,5.67 2.12,8.8 -0.16,3.14 -1.83,8.15 -3.13,9.99 -1.3,1.84 -2.89,1.3 -4.66,1.06 C 6.52,25.53 3.14,24.2 2.31,23.24 1.49,22.29 3.17,22.32 3.35,20.06 3.53,17.79 3.61,12.38 3.38,9.64 3.15,6.9 0.35,5.37 1.97,3.6 3.58,1.83 12.12,-0.68 13.06,-0.99 14,-1.29 7.87,1.65 7.6,1.78"
       stroke="#000000"
       stroke-width="1"
       fill="none"
       id="path928" />
  </g>
  <g
     stroke-linecap="round"
     id="g938"
     transform="translate(27.372304)">
    <g
       transform="translate(37.450358,54.636701)"
       fill-rule="evenodd"
       id="g936">
      <path
         d="m -1.94,1.48 -5.92,24.85 4.68,22.58 2.27,17.86 6.39,0.5 14.88,-17.12 25.47,-17.76 23.97,-12.7 2.6,-0.19 0.83,16.96 10.75,10.46 1.63,13.29 5.71,-1.19 6.69,-0.19 L 97.62,40.94 91.59,31.16 85.81,4.7 81.26,-3.2 60.22,-7.38 l -27.59,-2 -10.18,-3 L 0.7,2.91"
         stroke="none"
         stroke-width="0"
         fill="#ffd700"
         fill-rule="evenodd"
         id="path932" />
      <path
         d="M 2.41,-2.31 C 0.47,3.12 -8.82,19.48 -8.95,30.74 -9.08,42 -2.6,62.07 1.62,65.25 5.85,68.42 4.94,57.63 16.41,49.79 27.88,41.96 60.87,20.42 70.44,18.24 c 9.58,-2.18 1.57,14.42 3.42,18.47 1.86,4.05 6.68,2.09 7.72,5.82 1.03,3.73 -3.45,13.67 -1.53,16.56 1.93,2.9 9.75,3.5 13.05,0.79 3.3,-2.72 7.43,-12.13 6.74,-17.09 C 99.15,37.84 90.88,36.77 88.95,30.16 87.02,23.54 90.85,8.5 88.24,3.11 85.64,-2.27 79.4,-0.48 73.33,-2.17 67.26,-3.87 59.82,-6.27 51.84,-7.05 43.86,-7.84 31.59,-7.55 25.46,-6.9 19.33,-6.26 18.89,-4.32 15.05,-3.19 11.21,-2.06 4.69,-0.4 2.39,-0.11 M 0.28,2.62 c -1.25,4.88 -3.83,13.57 -3.66,24.59 0.16,11.02 1.48,37.3 4.64,41.52 3.16,4.22 3.17,-7.8 14.33,-16.18 11.16,-8.39 42.32,-30.99 52.63,-34.14 10.32,-3.16 6.8,11.77 9.24,15.21 2.45,3.43 4.19,1.23 5.45,5.39 1.27,4.15 -0.24,15.24 2.15,19.55 2.39,4.31 10.69,8.97 12.21,6.29 C 98.78,62.18 95.48,47.92 94.17,42.52 92.86,37.11 89.61,37.94 89.4,32.42 89.18,26.9 95.44,15.26 92.87,9.4 90.31,3.53 81.01,-0.04 74,-2.77 67,-5.51 58.7,-6.32 50.84,-7.02 42.99,-7.72 32.35,-6.76 26.88,-6.97 21.42,-7.18 22.42,-9.69 18.06,-8.26 13.7,-6.83 3.92,0.44 0.73,1.6"
         stroke="#343a40"
         stroke-width="4"
         fill="none"
         id="path934" />
    </g>
  </g>
  <mask
     id="mask940" />
  <g
     stroke-linecap="round"
     transform="translate(118.33829,97.109357)"
     id="g946">
    <path
       d="m 2.71,-0.69 c 1.01,-0.65 4.31,-0.09 5.68,0.55 1.38,0.64 1.76,2.31 2.56,3.28 0.79,0.98 1.89,1.84 2.2,2.58 C 13.46,6.47 13.2,7 12.79,7.61 12.38,8.23 11.82,9.1 10.67,9.41 9.52,9.72 7.24,9.56 5.89,9.46 4.54,9.37 3.5,9.78 2.56,8.82 1.63,7.87 0.47,4.97 0.27,3.73 0.06,2.49 0.68,1.71 1.34,1.37 1.99,1.03 3.54,2 4.18,1.68 M 4.67,1.86 C 5.2,1.87 5.1,1.75 6.63,1.54 8.16,1.32 13.09,0.24 13.85,0.57 14.6,0.89 11.35,2.46 11.16,3.49 10.97,4.52 13.07,5.56 12.71,6.75 12.35,7.94 10.58,10.56 8.99,10.61 7.41,10.67 4.86,8.27 3.22,7.06 1.58,5.84 -0.46,4 -0.86,3.33 -1.26,2.67 0.56,3.81 0.82,3.09 1.08,2.38 -0.13,-0.78 0.71,-0.95 1.55,-1.12 4.97,1.82 5.88,2.06"
       stroke="none"
       stroke-width="0"
       fill="00000"
       id="path942" />
    <path
       d="m 6.91,-0.77 c 1.15,-0.3 1.64,-0.87 2.55,0.02 0.9,0.88 1.9,3.9 2.89,5.3 0.99,1.4 3.14,2.72 3.05,3.09 C 15.31,8.01 13.09,6.18 11.81,6.78 10.54,7.38 9.5,11.32 7.74,11.24 5.99,11.16 2.42,7.18 1.27,6.33 0.13,5.47 1.09,6.9 0.88,6.11 0.67,5.33 -1.18,2.52 0.01,1.63 1.2,0.74 5.86,0.82 7.99,0.77 c 2.13,-0.06 4.8,0.85 4.79,0.52 M -0.2,2.62 c 1.13,-1.24 5.65,-4.48 7.26,-4.39 1.6,0.08 1.36,3.72 2.38,4.88 1.01,1.17 2.9,1.77 3.69,2.09 0.8,0.33 1.26,-0.89 1.07,-0.15 C 14,5.8 13.7,9.1 11.95,9.66 10.21,10.22 5.23,8.54 3.74,8.4 2.25,8.25 3.13,9.21 3,8.8 2.88,8.38 3.38,7.51 2.99,5.91 2.6,4.32 1.32,0.41 0.67,-0.77 0.02,-1.94 -1.17,-1.14 -0.9,-1.12"
       stroke="#000000"
       stroke-width="1"
       fill="none"
       id="path944" />
  </g>
  <g
     stroke-linecap="round"
     transform="translate(84.943755,98.888654)"
     id="g952">
    <path
       d="m 13.96,0.84 c 1.22,0.89 1.08,2.3 0.9,3.72 C 14.68,5.97 13.77,8.88 12.9,9.33 12.03,9.79 10.98,7.45 9.63,7.31 8.29,7.17 6.59,8.77 4.83,8.48 3.07,8.2 -0.16,6.59 -0.92,5.59 -1.68,4.6 -0.29,3.07 0.27,2.51 0.82,1.94 0.93,2.86 2.4,2.21 3.87,1.55 6.92,-1.62 9.08,-1.41 c 2.16,0.21 5.5,3.5 6.29,4.87 0.79,1.36 -1.29,2.98 -1.55,3.33 M 3.8,2.13 C 4.7,1.92 2.97,2.11 4.28,2.27 c 1.31,0.16 5.98,1.12 7.4,0.84 1.41,-0.27 0.9,-2.79 1.1,-2.48 0.21,0.31 1.06,2.73 0.11,4.36 C 11.95,6.62 8.43,10.06 7.11,10.4 5.8,10.74 6.1,7.98 5.01,7.05 3.92,6.12 1.08,5.56 0.58,4.83 0.08,4.09 1.85,3.57 2.02,2.63 2.19,1.69 1.6,-0.2 1.59,-0.81 1.57,-1.41 2.19,-0.96 1.94,-1.02"
       stroke="none"
       stroke-width="0"
       fill="00000"
       id="path948" />
    <path
       d="m 10.27,0.65 c 1.4,0.46 3.43,2.58 4.03,3.32 0.6,0.75 0.31,0.37 -0.42,1.14 C 13.14,5.89 10.91,7.74 9.9,8.61 8.89,9.49 8.69,10.68 7.79,10.36 6.9,10.05 5.97,7.23 4.54,6.72 3.12,6.21 0.06,7.88 -0.76,7.3 -1.58,6.72 -1.33,4.6 -0.37,3.25 0.58,1.91 2.65,-0.74 4.98,-0.76 7.31,-0.79 12.31,2.39 13.61,3.11 14.9,3.82 13.15,3.57 12.74,3.53 M 4.56,-1.24 c 0.89,-1.06 2.08,-1.83 3.51,-1.2 1.43,0.63 4.64,3.91 5.08,4.98 0.43,1.08 -2.52,0.26 -2.48,1.45 0.05,1.18 3.03,4.87 2.75,5.68 C 13.15,10.48 10.9,9.12 9.01,8.85 7.13,8.58 3.24,8.42 2.13,8.05 1.01,7.68 2.7,7.68 2.3,6.62 1.9,5.57 -1.14,3 -0.3,1.71 0.55,0.42 6.74,-0.64 7.37,-1.11 8,-1.59 4.36,-1.35 3.48,-1.14"
       stroke="#000000"
       stroke-width="1"
       fill="none"
       id="path950" />
  </g>
</svg>
