<?xml version="1.0" standalone="no"?>
<!DOCTYPE svg PUBLIC "-//W3C//DTD SVG 20010904//EN"
 "http://www.w3.org/TR/2001/REC-SVG-20010904/DTD/svg10.dtd">
<svg version="1.0" xmlns="http://www.w3.org/2000/svg"
 width="16.000000pt" height="16.000000pt" viewBox="0 0 16.000000 16.000000"
 preserveAspectRatio="xMidYMid meet">

<g transform="translate(0.000000,16.000000) scale(0.100000,-0.100000)"
fill="#000000" stroke="none">
<path d="M90 140 c0 -5 8 -6 17 -3 13 5 15 2 10 -11 -4 -10 -3 -15 3 -11 18
11 11 35 -10 35 -11 0 -20 -4 -20 -10z"/>
<path d="M77 114 c-3 -3 -3 -12 0 -20 3 -8 -1 -14 -10 -14 -20 0 -41 -26 -27
-35 6 -4 9 -1 8 6 -2 6 3 14 11 17 10 3 12 0 7 -14 -11 -28 8 -4 22 28 10 25
3 46 -11 32z"/>
<path d="M107 60 c4 -14 -4 -24 -28 -39 -19 -12 -29 -21 -23 -21 6 0 23 9 38
21 26 21 34 43 17 53 -5 4 -7 -3 -4 -14z"/>
</g>
</svg>
