<svg version="1.1" xmlns="http://www.w3.org/2000/svg" viewBox="0 0 168.59296702238944 223.83201349622956" width="168.59296702238944" height="223.83201349622956">
  <!-- svg-source:excalidraw -->
  
  <defs>
    <style class="style-fonts">
      @font-face {
        font-family: "Virgil";
        src: url("https://excalidraw.com/Virgil.woff2");
      }
      @font-face {
        font-family: "Cascadia";
        src: url("https://excalidraw.com/Cascadia.woff2");
      }
    </style>
  </defs>
  <rect x="0" y="0" width="168.59296702238944" height="223.83201349622956" fill="#ffffff"/><g stroke-linecap="round"><g stroke-opacity="0.7" fill-opacity="0.7" transform="translate(32.41129511378668 56.410138496229564) rotate(0 49.4296875 -19.8359375)" fill-rule="evenodd"><path d="M0.64 -3.73 L1.33 -11.39 L11.08 -27.07 L31.67 -40.4 L46.45 -42.89 L66.7 -39.12 L78.65 -39.36 L95.09 -18.91 L99.09 -7.74 L104.02 -1.28 L96.38 2.21 L79.91 -10.37 L50.12 -13.56 L17.46 -9.27 L11.77 -4.97 L0.49 -3.41" stroke="none" stroke-width="0" fill="#40c057" fill-rule="evenodd"/><path d="M-0.1 -0.85 C0.37 -3.65, -4.25 -12.35, 0.99 -19.36 C6.23 -26.36, 20.68 -39.51, 31.35 -42.87 C42.03 -46.23, 53.53 -44.28, 65.04 -39.52 C76.55 -34.76, 94.51 -21.25, 100.39 -14.31 C106.27 -7.38, 104 1.65, 100.33 2.09 C96.65 2.54, 91.94 -9.64, 78.36 -11.63 C64.78 -13.61, 32.06 -11.88, 18.85 -9.81 C5.64 -7.74, 1.92 -0.47, -0.91 0.78 M-3.59 -3.78 C-2.14 -6.1, 0.31 -10.96, 5.95 -17.11 C11.59 -23.26, 20.54 -36.16, 30.26 -40.7 C39.97 -45.23, 53 -48.86, 64.24 -44.33 C75.49 -39.79, 92.38 -20.81, 97.75 -13.48 C103.13 -6.16, 100.72 -1.34, 96.49 -0.37 C92.25 0.61, 85.63 -5.97, 72.35 -7.61 C59.07 -9.24, 28.32 -11.1, 16.81 -10.17 C5.3 -9.25, 6.75 -4.43, 3.29 -2.06" stroke="#2b8a3e" stroke-width="2" fill="none"/></g></g><mask/><g stroke-linecap="round"><g transform="translate(126.50504511378668 119.98435724622956) rotate(0 -44.625 -30.677734375)" fill-rule="evenodd"><path d="M2.92 -1.14 L-4.71 7.92 L-20.72 12.04 L-53.71 14.57 L-73.8 12.64 L-73.85 0.06 L-79.99 -0.05 L-86.1 -17.53 L-93.44 -42.26 L-90.57 -54.35 L-85.77 -66.88 L-66.83 -65.97 L-53.09 -72.66 L-22.47 -77.73 L-3.72 -65.38 L-2.12 -47.22 L3 -2.65" stroke="none" stroke-width="0" fill="#ffdab9" fill-rule="evenodd"/><path d="M-1.73 -1.38 C-4.02 -0.01, -3.85 7.86, -14.99 10.3 C-26.14 12.75, -58.57 14.58, -68.61 13.31 C-78.66 12.03, -72.82 6.67, -75.26 2.63 C-77.7 -1.41, -80.79 -1.84, -83.25 -10.94 C-85.72 -20.05, -92.32 -42.05, -90.05 -52.02 C-87.79 -62, -79.46 -66.73, -69.67 -70.78 C-59.88 -74.82, -41.06 -76.97, -31.34 -76.28 C-21.62 -75.59, -17.06 -70.79, -11.33 -66.62 C-5.6 -62.45, 1.62 -62.77, 3.05 -51.26 C4.48 -39.74, -2.62 -6.29, -2.74 2.47 M2.53 4.04 C1.25 4.31, 2.58 3.54, -9.62 5.59 C-21.82 7.65, -59.89 16.43, -70.67 16.36 C-81.45 16.3, -71.88 9.81, -74.31 5.18 C-76.73 0.55, -83.12 -1.4, -85.22 -11.4 C-87.32 -21.4, -89.83 -45.76, -86.9 -54.83 C-83.97 -63.9, -76.41 -61.98, -67.63 -65.83 C-58.86 -69.67, -44.25 -77.38, -34.27 -77.91 C-24.29 -78.44, -13.06 -73.52, -7.75 -69 C-2.44 -64.49, -3.09 -61.9, -2.38 -50.82 C-1.66 -39.74, -3.91 -11.14, -3.47 -2.5" stroke="#495057" stroke-width="2" fill="none"/></g></g><mask/><g stroke-linecap="round"><g transform="translate(130.89176386378668 73.95701349622956) rotate(0 11.037109375 8.32421875)" fill-rule="evenodd"><path d="M-3.78 0.02 L25.99 0.85 L29.52 7.75 L24.74 14.37 L17.87 15.58 L4.27 13.4 L-3.57 16.84 L-2.76 -2.64" stroke="none" stroke-width="0" fill="#ffdab9" fill-rule="evenodd"/><path d="M-2.17 -2.32 C1.62 -2.52, 18.03 -2.22, 22.04 0.46 C26.06 3.14, 24.32 10.71, 21.91 13.76 C19.5 16.8, 11.86 18.74, 7.56 18.73 C3.26 18.72, -2.25 16.69, -3.88 13.69 C-5.51 10.69, -3.25 3.49, -2.2 0.74 M1.84 2.59 C6.53 1.36, 23.95 -6.49, 26.96 -4.08 C29.96 -1.66, 23.09 14.11, 19.88 17.06 C16.68 20.01, 10.91 14.06, 7.71 13.61 C4.5 13.15, 1.95 16.83, 0.65 14.34 C-0.64 11.86, 0.61 0.88, -0.06 -1.31" stroke="#000000" stroke-width="2" fill="none"/></g></g><mask/><g stroke-linecap="round"><g transform="translate(29.48551386378668 75.78123224622956) rotate(0 -4 6.890625)" fill-rule="evenodd"><path d="M-2.66 2.05 L-11.59 -0.32 L-20.17 2.28 L-11.94 7.2 L-8.84 11.98 L2.62 15.08 L3.84 11.82 L1.51 3.71" stroke="none" stroke-width="0" fill="#ffdab9" fill-rule="evenodd"/><path d="M-0.52 -2.42 C-3.91 -2.02, -14.96 -2.07, -17.71 -0.19 C-20.46 1.69, -19.86 6.42, -17 8.85 C-14.15 11.28, -4.56 14.14, -0.58 14.39 C3.4 14.64, 6.74 12.61, 6.88 10.38 C7.02 8.15, 1.75 2.38, 0.25 1 M-4.25 2.44 C-7.01 2.25, -11.24 -5.99, -12.46 -4.41 C-13.69 -2.83, -13.9 8.45, -11.61 11.93 C-9.31 15.4, -2.57 16.74, 1.31 16.43 C5.19 16.13, 11.27 13.01, 11.67 10.12 C12.07 7.23, 5.96 0.76, 3.72 -0.91" stroke="#000000" stroke-width="2" fill="none"/></g></g><mask/><g stroke-linecap="round" transform="translate(45.90738886378668 136.19920099622956) rotate(0 36.544921875 25.384765625)"><path d="M13.78 1.73 L56.42 2.6 L68.23 2.86 L71.92 9.7 L71.78 40.69 L73.21 44.25 L57.7 50.96 L16.36 47.16 L6.76 48.05 L1.92 40.65 L3.43 9.78 L3.67 3.91 L9.94 -0.88" stroke="none" stroke-width="0" fill="#12b886"/><path d="M12.69 0 M12.69 0 C29.28 -0.51, 48.55 1.41, 60.4 0 M12.69 0 C23.34 -0.09, 37.69 -2.71, 60.4 0 M60.4 0 C68.55 1.72, 73.72 3.37, 73.09 12.69 M60.4 0 C72.53 1.5, 70.35 7.54, 73.09 12.69 M73.09 12.69 C72.56 19.61, 69.59 25.68, 73.09 38.08 M73.09 12.69 C74.69 22.72, 73.41 32.71, 73.09 38.08 M73.09 38.08 C70.1 45.57, 64.99 49.67, 60.4 50.77 M73.09 38.08 C75.68 47.06, 73.19 49.25, 60.4 50.77 M60.4 50.77 C46.16 48.04, 39.17 55.39, 12.69 50.77 M60.4 50.77 C50.84 51.58, 39.58 51.36, 12.69 50.77 M12.69 50.77 C7.78 51.83, -2.47 44.03, 0 38.08 M12.69 50.77 C0.31 49.97, -4.27 47.51, 0 38.08 M0 38.08 C-1.79 36.3, -1.69 28.91, 0 12.69 M0 38.08 C-0.39 32.61, -1.96 28.3, 0 12.69 M0 12.69 C3.15 3.11, 7.79 -2.44, 12.69 0 M0 12.69 C3.29 5.52, 0.5 2.58, 12.69 0" stroke="#2b8a3e" stroke-width="2" fill="none"/></g><g stroke-linecap="round"><g stroke-opacity="0.7" fill-opacity="0.7" transform="translate(51.34879511378668 137.90623224622956) rotate(0 -11.95703125 12.59375)" fill-rule="evenodd"><path d="M0.15 -0.34 L-24.52 10.79 L-26.2 14.42 L-10.24 25.15 L-4.69 26.48 L1.03 -1.89" stroke="none" stroke-width="0" fill="#2b8a3e" fill-rule="evenodd"/><path d="M1.91 -1.98 C-2.04 -0.93, -18.36 2.57, -21.84 6.82 C-25.33 11.07, -21.13 20.48, -19 23.51 C-16.88 26.53, -12.27 29.18, -9.11 24.99 C-5.94 20.81, -1.85 2.19, -0.03 -1.61 M-0.5 3.12 C-4.8 4.4, -19.43 6.72, -22.96 9.3 C-26.49 11.88, -23.95 15.57, -21.67 18.61 C-19.4 21.64, -12.33 30.86, -9.3 27.5 C-6.28 24.13, -4.65 2.86, -3.52 -1.56" stroke="#2b8a3e" stroke-width="2" fill="none"/></g></g><mask/><g stroke-linecap="round"><g stroke-opacity="0.7" fill-opacity="0.7" transform="translate(119.85270136378668 138.87888849622956) rotate(0 11.578125 10.955078125)" fill-rule="evenodd"><path d="M-0.7 1.86 L26.67 10.74 L25.66 14.11 L14.48 24.08 L13.15 27.17 L0.57 23.03 L-3.7 1.48" stroke="none" stroke-width="0" fill="#2b8a3e" fill-rule="evenodd"/><path d="M-1.25 0.92 C1.77 1.71, 17.35 3.58, 20.52 7.48 C23.7 11.38, 21.05 22.24, 17.81 24.32 C14.58 26.4, 4.02 23.91, 1.11 19.97 C-1.8 16.02, 0.13 4.08, 0.35 0.67 M3.26 -1.05 C6.9 1.21, 23.26 6.36, 25.5 9.89 C27.73 13.41, 20.89 18.13, 16.67 20.1 C12.45 22.08, 3.47 24.77, 0.2 21.75 C-3.07 18.72, -2.64 6.12, -2.94 1.96" stroke="#2b8a3e" stroke-width="2" fill="none"/></g></g><mask/><g stroke-linecap="round" transform="translate(121.60270136378668 160.29685724622956) rotate(0 13.515625 8.9375)"><path d="M15.61 4.08 L23.44 11.93 L19.22 13.72 L0.39 9.5 L8.94 -1.62 L20.75 4.7" stroke="none" stroke-width="0" fill="#ffdab9"/><path d="M17.5 2.25 M17.5 2.25 C17.98 2.32, 20.25 4.59, 23.53 6.75 M17.5 2.25 C19.71 3.72, 20.8 4.57, 23.53 6.75 M23.53 6.75 C28.06 8.86, 30.73 6.17, 23.53 11.25 M23.53 6.75 C29.93 7.44, 31.34 8.27, 23.53 11.25 M23.53 11.25 C20.82 11.84, 19.43 12.77, 17.5 15.63 M23.53 11.25 C22.26 12.96, 19.66 13.2, 17.5 15.63 M17.5 15.63 C10.6 19.89, 12.37 14.69, 10.5 15.63 M17.5 15.63 C10.63 19.53, 17.83 18, 10.5 15.63 M10.5 15.63 C7.22 14.97, 6.42 13.62, 3.5 11.25 M10.5 15.63 C7.15 13.31, 4.73 11.83, 3.5 11.25 M3.5 11.25 C0.94 9.2, 2.52 10.26, 3.5 6.75 M3.5 11.25 C-3.89 8.42, -3.22 10.51, 3.5 6.75 M3.5 6.75 C5.82 6.15, 6.85 3.38, 10.5 2.25 M3.5 6.75 C4.86 5.07, 5.9 5.6, 10.5 2.25 M10.5 2.25 C16 2.3, 17.7 0.27, 17.5 2.25 M10.5 2.25 C15.49 -0.55, 17.55 -2.77, 17.5 2.25" stroke="#495057" stroke-width="2" fill="none"/></g><g stroke-linecap="round" transform="translate(19.40348261378668 152.43748224622956) rotate(0 11.1015625 12.27734375)"><path d="M13.71 1.12 L24.2 10.18 L10.23 21.53 L-1.69 11.64 L12.96 -0.41 L16.56 6.5" stroke="none" stroke-width="0" fill="#ffdab9"/><path d="M15 3.25 M15 3.25 C16.58 4.02, 15.43 4.85, 19.2 9.75 M15 3.25 C16.87 5.34, 17.59 7.2, 19.2 9.75 M19.2 9.75 C24.43 14.8, 24.81 16.4, 19.2 16.25 M19.2 9.75 C20.07 9.85, 18.35 10.03, 19.2 16.25 M19.2 16.25 C18.18 18.36, 17.48 17.67, 15 21.3 M19.2 16.25 C17.48 17.5, 16.7 19.45, 15 21.3 M15 21.3 C13.05 24.73, 8.9 21.15, 9 21.3 M15 21.3 C10.34 22.92, 11.03 20.33, 9 21.3 M9 21.3 C8.48 21.69, 6.35 19.62, 3 16.25 M9 21.3 C7.47 19.09, 6.18 19.05, 3 16.25 M3 16.25 C-0.77 14.24, -1.44 15.45, 3 9.75 M3 16.25 C0.12 9.84, -3.01 14.16, 3 9.75 M3 9.75 C4.29 8.75, 6.58 5.07, 9 3.25 M3 9.75 C4.99 7.05, 6.36 6.37, 9 3.25 M9 3.25 C13.81 1.26, 13.21 2.15, 15 3.25 M9 3.25 C9.74 2.73, 13.31 3.97, 15 3.25" stroke="#343a40" stroke-width="2" fill="none"/></g><g stroke-opacity="0.7" fill-opacity="0.7" stroke-linecap="round" transform="translate(28.73160761378668 184.23826349622956) rotate(0 17.01953125 14.796875)"><path d="M25.02 5.01 L29.53 14.5 L15.2 29.97 L-1.6 13.57 L16.05 3.23 L23.55 3.93" stroke="none" stroke-width="0" fill="#b94e48"/><path d="M22.5 3.75 M22.5 3.75 C23.21 5.04, 23.62 5.55, 29.54 11.25 M22.5 3.75 C26.26 6.65, 28.37 9.37, 29.54 11.25 M29.54 11.25 C37.13 12.59, 35.46 11.5, 29.54 18.75 M29.54 11.25 C38.26 19.29, 33.16 16.42, 29.54 18.75 M29.54 18.75 C26.39 19.32, 26.41 23.45, 22.5 25.84 M29.54 18.75 C28.34 20.39, 25.5 22.82, 22.5 25.84 M22.5 25.84 C20.25 30.08, 19.1 26.37, 13.5 25.84 M22.5 25.84 C16.89 32.66, 20.08 31.05, 13.5 25.84 M13.5 25.84 C11.81 24.07, 9.46 22.45, 4.5 18.75 M13.5 25.84 C10.48 25.34, 9.25 23.86, 4.5 18.75 M4.5 18.75 C0.49 16.55, -1.3 14.86, 4.5 11.25 M4.5 18.75 C-2.35 18.16, 3.85 19.04, 4.5 11.25 M4.5 11.25 C7.86 7.77, 9.85 4.09, 13.5 3.75 M4.5 11.25 C7.47 9.44, 9.81 6.99, 13.5 3.75 M13.5 3.75 C19.12 -0.72, 19.14 -1.86, 22.5 3.75 M13.5 3.75 C17.93 1.5, 19.11 -3.22, 22.5 3.75" stroke="#000000" stroke-width="2" fill="none"/></g><g stroke-opacity="0.7" fill-opacity="0.7" stroke-linecap="round" transform="translate(96.20817011378668 183.69529474622956) rotate(0 17.01953125 14.796875)"><path d="M21.22 6.36 L29.13 17.24 L16.54 28.82 L3.09 16.96 L15.44 -2.1 L19.19 5.47" stroke="none" stroke-width="0" fill="#b94e48"/><path d="M22.5 3.75 M22.5 3.75 C24.95 7.27, 24.9 7.56, 29.54 11.25 M22.5 3.75 C24.97 5.14, 27.52 8.94, 29.54 11.25 M29.54 11.25 C31.05 18.93, 35.42 16.44, 29.54 18.75 M29.54 11.25 C30.59 10.83, 29.73 14.69, 29.54 18.75 M29.54 18.75 C26.42 20.23, 27.8 20.88, 22.5 25.84 M29.54 18.75 C27.8 20.41, 25.04 22.19, 22.5 25.84 M22.5 25.84 C20.97 31.76, 14.94 27.08, 13.5 25.84 M22.5 25.84 C13.68 31.82, 13.91 31.73, 13.5 25.84 M13.5 25.84 C11.22 23.35, 10.07 21.42, 4.5 18.75 M13.5 25.84 C11.62 23.86, 9.49 23.1, 4.5 18.75 M4.5 18.75 C0.24 16.96, 3.39 15.77, 4.5 11.25 M4.5 18.75 C-2.67 15.24, 3.24 16.11, 4.5 11.25 M4.5 11.25 C4.59 8.31, 9.25 7.58, 13.5 3.75 M4.5 11.25 C6.81 8.33, 9.9 6.8, 13.5 3.75 M13.5 3.75 C15.65 -3.11, 15.45 -0.5, 22.5 3.75 M13.5 3.75 C14.46 3.45, 19.06 -2.96, 22.5 3.75" stroke="#000000" stroke-width="2" fill="none"/></g><g stroke-linecap="round" transform="translate(89.50504511378668 90.79295099622956) rotate(0 8.466796875 13.132812499999998)"><path d="M14.54 1.88 C16.09 4.02, 17.49 9.82, 17.74 12.61 C17.98 15.39, 17.07 16.21, 16.03 18.6 C14.99 20.99, 13.08 25.83, 11.49 26.94 C9.9 28.04, 8.54 26.66, 6.5 25.23 C4.46 23.79, 0.51 20.57, -0.75 18.34 C-2.01 16.1, -1.41 14.53, -1.05 11.82 C-0.68 9.11, -0.31 3.73, 1.44 2.09 C3.19 0.44, 6.92 0.22, 9.45 1.96 C11.97 3.7, 16.16 8.9, 16.61 12.52 C17.06 16.14, 12.54 23.57, 12.13 23.69 M2.46 3.79 C3.27 2.37, 5.98 1.49, 7.64 1.48 C9.31 1.46, 10.47 2.2, 12.45 3.71 C14.44 5.22, 19.01 7.38, 19.56 10.54 C20.1 13.69, 17.72 20.08, 15.74 22.63 C13.76 25.18, 9.83 25.65, 7.67 25.86 C5.5 26.07, 3.8 25.52, 2.76 23.89 C1.71 22.27, 1.7 18.41, 1.38 16.08 C1.06 13.75, 0.11 12.19, 0.85 9.91 C1.58 7.63, 5.3 3.19, 5.79 2.38 C6.28 1.57, 3.62 5.29, 3.79 5.03" stroke="none" stroke-width="0" fill="#ffffff"/><path d="M5.21 -1.21 C7.07 -1.75, 12 -0.42, 14.18 1.21 C16.35 2.85, 18.03 5.87, 18.27 8.61 C18.5 11.35, 16.18 14.93, 15.59 17.65 C15 20.36, 16.11 23.78, 14.7 24.88 C13.3 25.99, 9.07 25.05, 7.16 24.26 C5.25 23.47, 4.57 21.65, 3.26 20.15 C1.95 18.66, -0.32 17.76, -0.71 15.31 C-1.11 12.85, -1.1 7.8, 0.91 5.42 C2.91 3.04, 9.26 1.49, 11.32 1.03 C13.38 0.58, 13.67 2.43, 13.26 2.69 M5.74 4.14 C7.11 3.41, 10.1 1.76, 12.19 2.43 C14.28 3.09, 17.19 6.48, 18.29 8.15 C19.39 9.82, 19.55 10.07, 18.78 12.45 C18.01 14.84, 15.49 19.89, 13.67 22.47 C11.85 25.05, 9.51 28.06, 7.87 27.94 C6.23 27.83, 5.2 24.17, 3.84 21.78 C2.49 19.39, 0.47 16.24, -0.28 13.61 C-1.03 10.98, -1.5 8.33, -0.67 5.99 C0.17 3.65, 3.97 0.77, 4.73 -0.44 C5.49 -1.64, 3.47 -1.84, 3.87 -1.25" stroke="#000000" stroke-width="1" fill="none"/></g><g stroke-linecap="round" transform="translate(57.87418573878668 93.69138849622956) rotate(0 8.466796875 13.132812499999998)"><path d="M10.2 -1.33 C11.46 -0.71, 12.57 3.15, 13.79 5.6 C15.02 8.06, 17.37 10.4, 17.56 13.39 C17.76 16.37, 16.59 21.49, 14.95 23.53 C13.32 25.57, 9.41 25.62, 7.76 25.62 C6.12 25.62, 6.1 25.01, 5.08 23.53 C4.06 22.06, 2.48 19.3, 1.64 16.78 C0.81 14.25, -0.61 11.21, 0.07 8.39 C0.75 5.56, 3.63 0.69, 5.73 -0.17 C7.82 -1.04, 10.97 1.97, 12.64 3.19 C14.31 4.4, 15.59 7.2, 15.74 7.11 M2.51 1.43 C3.84 -0.6, 4.77 -3.21, 6.21 -2.69 C7.66 -2.18, 9.46 2.45, 11.17 4.53 C12.88 6.6, 16.07 7.09, 16.48 9.76 C16.88 12.43, 14.37 18.15, 13.61 20.57 C12.86 22.98, 12.65 23.51, 11.95 24.25 C11.25 25, 10.68 25.63, 9.41 25.06 C8.13 24.49, 5.73 22.6, 4.3 20.84 C2.88 19.08, 1.09 16.95, 0.86 14.51 C0.63 12.08, 2.53 7.51, 2.92 6.21 C3.31 4.91, 2.71 6.91, 3.2 6.73" stroke="none" stroke-width="0" fill="#ffffff"/><path d="M5.17 2.8 C6.3 1.79, 8.59 0.14, 10.13 0.95 C11.66 1.76, 13.33 5.1, 14.4 7.65 C15.48 10.2, 16.75 13.46, 16.56 16.26 C16.36 19.05, 14.84 23.05, 13.24 24.42 C11.65 25.79, 8.35 24.93, 6.97 24.48 C5.6 24.03, 5.89 23.21, 4.97 21.71 C4.06 20.22, 2.3 17.92, 1.49 15.5 C0.69 13.08, -0.56 10.03, 0.13 7.18 C0.83 4.32, 4.51 -0.34, 5.65 -1.63 C6.8 -2.91, 7.04 -1.03, 7.02 -0.52 M11.06 -1.25 C12.17 -0.6, 13.13 3.26, 13.97 5.93 C14.8 8.59, 16.26 11.6, 16.09 14.73 C15.93 17.87, 14.26 22.88, 12.96 24.72 C11.66 26.56, 10.07 26.02, 8.3 25.78 C6.52 25.53, 3.14 24.2, 2.31 23.24 C1.49 22.29, 3.17 22.32, 3.35 20.06 C3.53 17.79, 3.61 12.38, 3.38 9.64 C3.15 6.9, 0.35 5.37, 1.97 3.6 C3.58 1.83, 12.12 -0.68, 13.06 -0.99 C14 -1.29, 7.87 1.65, 7.6 1.78" stroke="#000000" stroke-width="1" fill="none"/></g><g stroke-linecap="round"><g transform="translate(37.45035761378668 54.636700996229564) rotate(0 45.146484375 27.6796875)" fill-rule="evenodd"><path d="M-1.94 1.48 L-7.86 26.33 L-3.18 48.91 L-0.91 66.77 L5.48 67.27 L20.36 50.15 L45.83 32.39 L69.8 19.69 L72.4 19.5 L73.23 36.46 L83.98 46.92 L85.61 60.21 L91.32 59.02 L98.01 58.83 L97.62 40.94 L91.59 31.16 L85.81 4.7 L81.26 -3.2 L60.22 -7.38 L32.63 -9.38 L22.45 -12.38 L0.7 2.91" stroke="none" stroke-width="0" fill="#ffd700" fill-rule="evenodd"/><path d="M2.41 -2.31 C0.47 3.12, -8.82 19.48, -8.95 30.74 C-9.08 42, -2.6 62.07, 1.62 65.25 C5.85 68.42, 4.94 57.63, 16.41 49.79 C27.88 41.96, 60.87 20.42, 70.44 18.24 C80.02 16.06, 72.01 32.66, 73.86 36.71 C75.72 40.76, 80.54 38.8, 81.58 42.53 C82.61 46.26, 78.13 56.2, 80.05 59.09 C81.98 61.99, 89.8 62.59, 93.1 59.88 C96.4 57.16, 100.53 47.75, 99.84 42.79 C99.15 37.84, 90.88 36.77, 88.95 30.16 C87.02 23.54, 90.85 8.5, 88.24 3.11 C85.64 -2.27, 79.4 -0.48, 73.33 -2.17 C67.26 -3.87, 59.82 -6.27, 51.84 -7.05 C43.86 -7.84, 31.59 -7.55, 25.46 -6.9 C19.33 -6.26, 18.89 -4.32, 15.05 -3.19 C11.21 -2.06, 4.69 -0.4, 2.39 -0.11 M0.28 2.62 C-0.97 7.5, -3.55 16.19, -3.38 27.21 C-3.22 38.23, -1.9 64.51, 1.26 68.73 C4.42 72.95, 4.43 60.93, 15.59 52.55 C26.75 44.16, 57.91 21.56, 68.22 18.41 C78.54 15.25, 75.02 30.18, 77.46 33.62 C79.91 37.05, 81.65 34.85, 82.91 39.01 C84.18 43.16, 82.67 54.25, 85.06 58.56 C87.45 62.87, 95.75 67.53, 97.27 64.85 C98.78 62.18, 95.48 47.92, 94.17 42.52 C92.86 37.11, 89.61 37.94, 89.4 32.42 C89.18 26.9, 95.44 15.26, 92.87 9.4 C90.31 3.53, 81.01 -0.04, 74 -2.77 C67 -5.51, 58.7 -6.32, 50.84 -7.02 C42.99 -7.72, 32.35 -6.76, 26.88 -6.97 C21.42 -7.18, 22.42 -9.69, 18.06 -8.26 C13.7 -6.83, 3.92 0.44, 0.73 1.6" stroke="#343a40" stroke-width="4" fill="none"/></g></g><mask/><g stroke-linecap="round" transform="translate(90.96598261378668 97.10935724622956) rotate(0 6.88671875 4.654296875)"><path d="M2.71 -0.69 C3.72 -1.34, 7.02 -0.78, 8.39 -0.14 C9.77 0.5, 10.15 2.17, 10.95 3.14 C11.74 4.12, 12.84 4.98, 13.15 5.72 C13.46 6.47, 13.2 7, 12.79 7.61 C12.38 8.23, 11.82 9.1, 10.67 9.41 C9.52 9.72, 7.24 9.56, 5.89 9.46 C4.54 9.37, 3.5 9.78, 2.56 8.82 C1.63 7.87, 0.47 4.97, 0.27 3.73 C0.06 2.49, 0.68 1.71, 1.34 1.37 C1.99 1.03, 3.54 2, 4.18 1.68 M4.67 1.86 C5.2 1.87, 5.1 1.75, 6.63 1.54 C8.16 1.32, 13.09 0.24, 13.85 0.57 C14.6 0.89, 11.35 2.46, 11.16 3.49 C10.97 4.52, 13.07 5.56, 12.71 6.75 C12.35 7.94, 10.58 10.56, 8.99 10.61 C7.41 10.67, 4.86 8.27, 3.22 7.06 C1.58 5.84, -0.46 4, -0.86 3.33 C-1.26 2.67, 0.56 3.81, 0.82 3.09 C1.08 2.38, -0.13 -0.78, 0.71 -0.95 C1.55 -1.12, 4.97 1.82, 5.88 2.06" stroke="none" stroke-width="0" fill="00000"/><path d="M6.91 -0.77 C8.06 -1.07, 8.55 -1.64, 9.46 -0.75 C10.36 0.13, 11.36 3.15, 12.35 4.55 C13.34 5.95, 15.49 7.27, 15.4 7.64 C15.31 8.01, 13.09 6.18, 11.81 6.78 C10.54 7.38, 9.5 11.32, 7.74 11.24 C5.99 11.16, 2.42 7.18, 1.27 6.33 C0.13 5.47, 1.09 6.9, 0.88 6.11 C0.67 5.33, -1.18 2.52, 0.01 1.63 C1.2 0.74, 5.86 0.82, 7.99 0.77 C10.12 0.71, 12.79 1.62, 12.78 1.29 M-0.2 2.62 C0.93 1.38, 5.45 -1.86, 7.06 -1.77 C8.66 -1.69, 8.42 1.95, 9.44 3.11 C10.45 4.28, 12.34 4.88, 13.13 5.2 C13.93 5.53, 14.39 4.31, 14.2 5.05 C14 5.8, 13.7 9.1, 11.95 9.66 C10.21 10.22, 5.23 8.54, 3.74 8.4 C2.25 8.25, 3.13 9.21, 3 8.8 C2.88 8.38, 3.38 7.51, 2.99 5.91 C2.6 4.32, 1.32 0.41, 0.67 -0.77 C0.02 -1.94, -1.17 -1.14, -0.9 -1.12" stroke="#000000" stroke-width="1" fill="none"/></g><g stroke-linecap="round" transform="translate(57.57145136378668 98.88865412122956) rotate(0 6.88671875 4.654296875)"><path d="M13.96 0.84 C15.18 1.73, 15.04 3.14, 14.86 4.56 C14.68 5.97, 13.77 8.88, 12.9 9.33 C12.03 9.79, 10.98 7.45, 9.63 7.31 C8.29 7.17, 6.59 8.77, 4.83 8.48 C3.07 8.2, -0.16 6.59, -0.92 5.59 C-1.68 4.6, -0.29 3.07, 0.27 2.51 C0.82 1.94, 0.93 2.86, 2.4 2.21 C3.87 1.55, 6.92 -1.62, 9.08 -1.41 C11.24 -1.2, 14.58 2.09, 15.37 3.46 C16.16 4.82, 14.08 6.44, 13.82 6.79 M3.8 2.13 C4.7 1.92, 2.97 2.11, 4.28 2.27 C5.59 2.43, 10.26 3.39, 11.68 3.11 C13.09 2.84, 12.58 0.32, 12.78 0.63 C12.99 0.94, 13.84 3.36, 12.89 4.99 C11.95 6.62, 8.43 10.06, 7.11 10.4 C5.8 10.74, 6.1 7.98, 5.01 7.05 C3.92 6.12, 1.08 5.56, 0.58 4.83 C0.08 4.09, 1.85 3.57, 2.02 2.63 C2.19 1.69, 1.6 -0.2, 1.59 -0.81 C1.57 -1.41, 2.19 -0.96, 1.94 -1.02" stroke="none" stroke-width="0" fill="00000"/><path d="M10.27 0.65 C11.67 1.11, 13.7 3.23, 14.3 3.97 C14.9 4.72, 14.61 4.34, 13.88 5.11 C13.14 5.89, 10.91 7.74, 9.9 8.61 C8.89 9.49, 8.69 10.68, 7.79 10.36 C6.9 10.05, 5.97 7.23, 4.54 6.72 C3.12 6.21, 0.06 7.88, -0.76 7.3 C-1.58 6.72, -1.33 4.6, -0.37 3.25 C0.58 1.91, 2.65 -0.74, 4.98 -0.76 C7.31 -0.79, 12.31 2.39, 13.61 3.11 C14.9 3.82, 13.15 3.57, 12.74 3.53 M4.56 -1.24 C5.45 -2.3, 6.64 -3.07, 8.07 -2.44 C9.5 -1.81, 12.71 1.47, 13.15 2.54 C13.58 3.62, 10.63 2.8, 10.67 3.99 C10.72 5.17, 13.7 8.86, 13.42 9.67 C13.15 10.48, 10.9 9.12, 9.01 8.85 C7.13 8.58, 3.24 8.42, 2.13 8.05 C1.01 7.68, 2.7 7.68, 2.3 6.62 C1.9 5.57, -1.14 3, -0.3 1.71 C0.55 0.42, 6.74 -0.64, 7.37 -1.11 C8 -1.59, 4.36 -1.35, 3.48 -1.14" stroke="#000000" stroke-width="1" fill="none"/></g></svg>